<svg xmlns="http://www.w3.org/2000/svg" version="1.1" xmlns:xlink="http://www.w3.org/1999/xlink" xmlns:svgjs="http://svgjs.com/svgjs" width="100%" height="100%" viewBox="0 0 1000 600"><rect width="1000" height="600" x="0" y="0" fill="#000000"/><g><circle r="166.66666666666666" cx="423.22330729166663" cy="445.4455162440645" fill="#d3d3d3" transform="matrix(0.48722185470875473,0,0,0.4872218547087547,0,82.96920102285148)"/><path d="M463.5137951233858 386.5617191478199L402.511007570836 386.5617191478199L402.511007570836 436.64130697227125L457.0673165953277 436.64130697227125L457.0673165953277 452.75750329241646L402.511007570836 452.75750329241646L402.511007570836 504.32933151688127L463.5137951233858 504.32933151688127L463.5137951233858 520.4455278370265L382.93281352265956 520.4455278370265L382.93281352265956 370.4455228276746L463.5137951233858 370.4455228276746L463.5137951233858 386.5617191478199Z " fill="#004aad" transform="matrix(0.48722185470875473,0,0,0.4872218547087547,0,82.96920102285148)"/><path d="M746.2752475437657 397.3124122478512L690.9722196761097 397.3124122478512L690.9722196761097 442.7128431489895L740.4310919569683 442.7128431489895L740.4310919569683 457.3232321159827L690.9722196761097 457.3232321159827L690.9722196761097 504.07647681036104L746.2752475437657 504.07647681036104L746.2752475437657 518.6868657773543L673.2233027087995 518.6868657773543L673.2233027087995 382.702023280858L746.2752475437657 382.702023280858L746.2752475437657 397.3124122478512ZM838.4289231392822 426.3437962507841L786.4267609271322 504.07647681036104L838.8077110013894 504.07647681036104L838.8077110013894 518.6868657773543L766.1616103043953 518.6868657773543L766.1616103043953 504.07647681036104L817.9743785854916 426.3437962507841L766.5403981665025 426.3437962507841L766.5403981665025 411.92280121484447L838.4289231392822 411.92280121484447L838.4289231392822 426.3437962507841ZM870.9505667287747 394.606784661371Q865.8910431420566 394.606784661371 862.400783555497 391.0894687989467Q858.8834676930728 387.5721529365224 858.8834676930728 382.5126293498044L858.8834676930728 382.5126293498044Q858.8834676930728 377.45310576308634 862.400783555497 373.9357899006621Q865.8910431420566 370.44553031410254 870.9505667287747 370.44553031410254L870.9505667287747 370.44553031410254Q875.8206963844391 370.44553031410254 879.2297871434041 373.9357899006621Q882.6388779023691 377.45310576308634 882.6388779023691 382.5126293498044L882.6388779023691 382.5126293498044Q882.6388779023691 387.5721529365224 879.2297871434041 391.0894687989467Q875.8206963844391 394.606784661371 870.9505667287747 394.606784661371L870.9505667287747 394.606784661371ZM861.8055454864714 411.92280121484447L879.5274061779169 411.92280121484447L879.5274061779169 518.6868657773543L861.8055454864714 518.6868657773543L861.8055454864714 411.92280121484447ZM903.0934224561597 464.92604563399215Q903.0934224561597 448.55699873578675 909.7222100430363 436.1922806655721Q916.3509976299129 423.8275625953575 927.9310837000482 417.00938107742735Q939.5382260460484 410.19119955949714 953.9592210819881 410.19119955949714L953.9592210819881 410.19119955949714Q966.4051079797971 410.19119955949714 977.1193932222589 415.92713004283524Q987.8336784647205 421.6630605261733 993.4884401204642 431.0245319753949L993.4884401204642 431.0245319753949L993.4884401204642 374.5310279696877L1011.4267510188281 374.5310279696877L1011.4267510188281 518.6868657773543L993.4884401204642 518.6868657773543L993.4884401204642 498.611109085671Q988.2395226026925 508.16197446594623 977.9040252223381 514.3037490872564Q967.5955841178484 520.4455237085665 953.7427708750696 520.4455237085665L953.7427708750696 520.4455237085665Q939.5382260460484 520.4455237085665 927.9310837000482 513.4379482595828Q916.3509976299129 506.4033165347341 909.7222100430363 493.7409794300066Q903.0934224561597 481.07864232527913 903.0934224561597 464.92604563399215L903.0934224561597 464.92604563399215ZM993.4884401204642 465.1154395650458Q993.4884401204642 453.048340529344 988.6183104647998 444.0656569422296Q983.7481808091354 435.11002963098 975.4689603945059 430.34812507877484Q967.1897399798763 425.55916425070484 957.2600867374939 425.55916425070484L957.2600867374939 425.55916425070484Q947.3304334951115 425.55916425070484 939.1323819080764 430.2398999753156Q930.9613865969061 434.92063569992644 926.0912569412417 443.876263011176Q921.2211272855773 452.8318903224255 921.2211272855773 464.92604563399215L921.2211272855773 464.92604563399215Q921.2211272855773 477.1825386007476 926.0912569412417 486.24639101545637Q930.9613865969061 495.31024343016514 939.1323819080764 500.0721479823704Q947.3304334951115 504.8611088104404 957.2600867374939 504.8611088104404L957.2600867374939 504.8611088104404Q967.1897399798763 504.8611088104404 975.4689603945059 500.0721479823704Q983.7481808091354 495.31024343016514 988.6183104647998 486.24639101545637Q993.4884401204642 477.1825386007476 993.4884401204642 465.1154395650458L993.4884401204642 465.1154395650458ZM1059.1540216443393 429.26587404418274Q1063.8077010930854 420.12085280187955 1072.4927656456869 415.06132921516155Q1081.1507739224235 409.9747493525787 1093.6237170960974 409.9747493525787L1093.6237170960974 409.9747493525787L1093.6237170960974 428.29184811304987L1088.9429813714867 428.29184811304987Q1059.1540216443393 428.29184811304987 1059.1540216443393 460.6240977714886L1059.1540216443393 460.6240977714886L1059.1540216443393 518.6868657773543L1041.4051046770292 518.6868657773543L1041.4051046770292 411.92280121484447L1059.1540216443393 411.92280121484447L1059.1540216443393 429.26587404418274ZM1160.6421124132128 520.4455237085665Q1145.6258793082475 520.4455237085665 1133.4505551690863 513.6273421906362Q1121.2752310299254 506.8091606727061 1114.3758806844007 494.22799239557304Q1107.4494740630114 481.6738803943048 1107.4494740630114 465.1154395650458L1107.4494740630114 465.1154395650458Q1107.4494740630114 448.7463926668404 1114.5652746154544 436.1922806655721Q1121.6810751678975 423.61111238843904 1133.9375681346528 416.9011559739681Q1146.221117377273 410.19119955949714 1161.426744413292 410.19119955949714L1161.426744413292 410.19119955949714Q1176.6053151734461 410.19119955949714 1188.8888644160663 416.9011559739681Q1201.1453573828217 423.61111238843904 1208.2611579352647 436.08405556211295Q1215.3769584877077 448.55699873578675 1215.3769584877077 465.1154395650458L1215.3769584877077 465.1154395650458Q1215.3769584877077 481.6738803943048 1208.0717640042112 494.22799239557304Q1200.7665695207147 506.8091606727061 1188.2936263470406 513.6273421906362Q1175.820683173367 520.4455237085665 1160.6421124132128 520.4455237085665L1160.6421124132128 520.4455237085665ZM1160.6421124132128 504.8611088104404Q1170.192977793488 504.8611088104404 1178.5533670357117 500.36976701688315Q1186.9408125538007 495.9054814991908 1192.1085612439779 486.9227979120764Q1197.2492536582904 477.9671706008269 1197.2492536582904 465.1154395650458L1197.2492536582904 465.1154395650458Q1197.2492536582904 452.2637085292647 1192.1897300715723 443.30808121801516Q1187.1302064848542 434.3253976309008 1178.9592111736838 429.94228094080285Q1170.7611595866488 425.55916425070484 1161.2102942063736 425.55916425070484L1161.2102942063736 425.55916425070484Q1151.4700348950448 425.55916425070484 1143.4072646873337 429.94228094080285Q1135.3174382037578 434.3253976309008 1130.4473085480934 443.30808121801516Q1125.577178892429 452.2637085292647 1125.577178892429 465.1154395650458L1125.577178892429 465.1154395650458Q1125.577178892429 478.15656453188046 1130.3390834446343 487.1392481189949Q1135.1280442727043 496.09487543024443 1143.109645652821 500.4779921203423Q1151.0912470329376 504.8611088104404 1160.6421124132128 504.8611088104404L1160.6421124132128 504.8611088104404ZM1276.5511982180258 520.4455237085665Q1264.2676489754056 520.4455237085665 1254.5273896640767 516.251800949522Q1244.787130352748 512.0580781904778 1239.132368697004 504.5634897759275Q1233.5046633171255 497.0689013613773 1232.9094252480998 487.3286420500485L1232.9094252480998 487.3286420500485L1251.2265240085708 487.3286420500485Q1252.0111560086502 495.31024343016514 1258.7211124231212 500.36976701688315Q1265.431068837592 505.4292906036012 1276.361804286972 505.4292906036012L1276.361804286972 505.4292906036012Q1286.4808514604083 505.4292906036012 1292.3250070472054 500.9650050859088Q1298.169162634003 496.47366329235166 1298.169162634003 489.65548177442145L1298.169162634003 489.65548177442145Q1298.169162634003 482.64790632543765 1291.9462191850982 479.23881556647257Q1285.6962194603288 475.8297248075075 1272.6550944934943 472.52885915200164L1272.6550944934943 472.52885915200164Q1260.7773893888461 469.39033115168456 1253.255744698431 466.1976905996379Q1245.7611562838808 462.9779937717264 1240.40401366265 456.64682521936265Q1235.046871041419 450.3156566669989 1235.046871041419 439.98015928664444L1235.046871041419 439.98015928664444Q1235.046871041419 431.8091639754742 1239.9170006970835 424.99098245754396Q1244.787130352748 418.1728009396138 1253.7427576639975 414.1684721116231Q1262.7254412511118 410.19119955949714 1274.197302217788 410.19119955949714L1274.197302217788 410.19119955949714Q1291.9462191850982 410.19119955949714 1302.8498983586137 419.1468268707467Q1313.753577532129 428.1024541819963 1314.5382095322082 443.68686908012234L1314.5382095322082 443.68686908012234L1296.8163488407627 443.68686908012234Q1296.2211107717371 435.29942356203367 1290.079336150427 430.2398999753156Q1283.937561529117 425.1803763885976 1273.6291204246272 425.1803763885976L1273.6291204246272 425.1803763885976Q1264.0782550443519 425.1803763885976 1258.4234933886082 429.26587404418274Q1252.7687317328646 433.35137169976787 1252.7687317328646 439.98015928664444L1252.7687317328646 439.98015928664444Q1252.7687317328646 445.2561330802809 1256.1778224918296 448.665223839246Q1259.5869132507946 452.07431459821106 1264.7546619409718 454.10353528807127Q1269.9224106311492 456.15981225379625 1279.0674318734523 458.67604590922286L1279.0674318734523 458.67604590922286Q1290.5663491159935 461.8145739095399 1297.7903747718956 464.81782053053297Q1304.987344151933 467.8481234273908 1310.1550928421102 473.88167294524175Q1315.3228415322874 479.9152224630926 1315.5122354633409 489.65548177442145L1315.5122354633409 489.65548177442145Q1315.5122354633409 498.4217151546174 1310.6421058076767 505.4292906036012Q1305.7719761520123 512.4639223284498 1296.897517668357 516.4411948805757Q1288.0501154605668 520.4455237085665 1276.5511982180258 520.4455237085665L1276.5511982180258 520.4455237085665ZM1346.0858271905677 519.8502856395407Q1341.0263036038498 519.8502856395407 1337.5089877414252 516.3600260529813Q1334.0187281548658 512.842710190557 1334.0187281548658 507.783186603839L1334.0187281548658 507.783186603839Q1334.0187281548658 502.72366301712094 1337.5089877414252 499.20634715469663Q1341.0263036038498 495.6890312922724 1346.0858271905677 495.6890312922724L1346.0858271905677 495.6890312922724Q1350.955956846232 495.6890312922724 1354.365047605197 499.20634715469663Q1357.7741383641624 502.72366301712094 1357.7741383641624 507.783186603839L1357.7741383641624 507.783186603839Q1357.7741383641624 512.842710190557 1354.365047605197 516.3600260529813Q1350.955956846232 519.8502856395407 1346.0858271905677 519.8502856395407L1346.0858271905677 519.8502856395407ZM1374.7384233313933 465.1154395650458Q1374.7384233313933 448.55699873578675 1381.340154642405 436.1922806655721Q1387.9689422292815 423.8275625953575 1399.7654785063355 417.00938107742735Q1411.5349585075246 410.19119955949714 1426.7405855435434 410.19119955949714L1426.7405855435434 410.19119955949714Q1446.4104980972547 410.19119955949714 1459.1810603054412 419.71500866390755Q1471.9245662377632 429.26587404418274 1476.037120169213 446.2301590114138L1476.037120169213 446.2301590114138L1456.9353894086626 446.2301590114138Q1454.2027055463177 436.48989970008495 1446.32932926966 430.8351380443413Q1438.4288967171378 425.1803763885976 1426.7405855435434 425.1803763885976L1426.7405855435434 425.1803763885976Q1411.5349585075246 425.1803763885976 1402.2005433341678 435.5970425965465Q1392.839071884946 446.01370880449537 1392.839071884946 465.1154395650458L1392.839071884946 465.1154395650458Q1392.839071884946 484.4065642566498 1402.2005433341678 494.9314555680579Q1411.5349585075246 505.4292906036012 1426.7405855435434 505.4292906036012L1426.7405855435434 505.4292906036012Q1438.4288967171378 505.4292906036012 1446.221104166201 499.99097915477597Q1454.013311615264 494.52561143008586 1456.9353894086626 484.4065642566498L1456.9353894086626 484.4065642566498L1476.037120169213 484.4065642566498Q1471.7351723067095 500.7756111548552 1458.8834412709284 510.59703929377844Q1446.0317102351473 520.4455237085665 1426.7405855435434 520.4455237085665L1426.7405855435434 520.4455237085665Q1411.5349585075246 520.4455237085665 1399.7654785063355 513.6273421906362Q1387.9689422292815 506.8091606727061 1381.340154642405 494.3362174990323Q1374.7384233313933 481.8632743253584 1374.7384233313933 465.1154395650458L1374.7384233313933 465.1154395650458ZM1546.1669872107805 520.4455237085665Q1531.1507541058154 520.4455237085665 1518.9754299666542 513.6273421906362Q1506.8001058274933 506.8091606727061 1499.9007554819686 494.22799239557304Q1492.974348860579 481.6738803943048 1492.974348860579 465.1154395650458L1492.974348860579 465.1154395650458Q1492.974348860579 448.7463926668404 1500.0901494130221 436.1922806655721Q1507.2059499654652 423.61111238843904 1519.4624429322207 416.9011559739681Q1531.745992174841 410.19119955949714 1546.924562934995 410.19119955949714L1546.924562934995 410.19119955949714Q1562.1301899710138 410.19119955949714 1574.4137392136342 416.9011559739681Q1586.6702321803896 423.61111238843904 1593.7860327328326 436.08405556211295Q1600.9018332852756 448.55699873578675 1600.9018332852756 465.1154395650458L1600.9018332852756 465.1154395650458Q1600.9018332852756 481.6738803943048 1593.5966388017791 494.22799239557304Q1586.2914443182824 506.8091606727061 1573.8185011446085 513.6273421906362Q1561.3455579709348 520.4455237085665 1546.1669872107805 520.4455237085665L1546.1669872107805 520.4455237085665ZM1546.1669872107805 504.8611088104404Q1555.6907963151912 504.8611088104404 1564.0782418332797 500.36976701688315Q1572.4656873513682 495.9054814991908 1577.606379765681 486.9227979120764Q1582.774128455858 477.9671706008269 1582.774128455858 465.1154395650458L1582.774128455858 465.1154395650458Q1582.774128455858 452.2637085292647 1577.71460486914 443.30808121801516Q1572.655081282422 434.3253976309008 1564.457029695387 429.94228094080285Q1556.2860343842167 425.55916425070484 1546.7351690039413 425.55916425070484L1546.7351690039413 425.55916425070484Q1536.9949096926127 425.55916425070484 1528.905083209037 429.94228094080285Q1520.8423130013257 434.3253976309008 1515.9721833456613 443.30808121801516Q1511.1020536899969 452.2637085292647 1511.1020536899969 465.1154395650458L1511.1020536899969 465.1154395650458Q1511.1020536899969 478.15656453188046 1515.863958242202 487.1392481189949Q1520.6258627944073 496.09487543024443 1528.6345204503887 500.4779921203423Q1536.6161218305053 504.8611088104404 1546.1669872107805 504.8611088104404L1546.1669872107805 504.8611088104404ZM1752.6604846109517 409.9747493525787Q1765.1063715087607 409.9747493525787 1774.8466308200896 415.14249804275596Q1784.5868901314184 420.3102467329332 1790.241651787162 430.64574411328766Q1795.8964134429057 440.95418521777736 1795.8964134429057 455.7539681158242L1795.8964134429057 455.7539681158242L1795.8964134429057 518.6868657773543L1778.3639466825139 518.6868657773543L1778.3639466825139 458.2972580471156Q1778.3639466825139 442.33405528688223 1770.4635141299914 433.83838466533433Q1762.590137853334 425.3697703196512 1749.1431687485274 425.3697703196512L1749.1431687485274 425.3697703196512Q1735.3174117816134 425.3697703196512 1727.1193601945783 434.2442288033064Q1718.948364883408 443.0916310110967 1718.948364883408 459.86652204727415L1718.948364883408 459.86652204727415L1718.948364883408 518.6868657773543L1701.4158981230162 518.6868657773543L1701.4158981230162 458.2972580471156Q1701.4158981230162 442.33405528688223 1693.5154655704937 433.83838466533433Q1685.6420892938365 425.3697703196512 1672.1951201890297 425.3697703196512L1672.1951201890297 425.3697703196512Q1658.3693632221157 425.3697703196512 1650.1713116350807 434.2442288033064Q1642.0003163239103 443.0916310110967 1642.0003163239103 459.86652204727415L1642.0003163239103 459.86652204727415L1642.0003163239103 518.6868657773543L1624.278455632465 518.6868657773543L1624.278455632465 411.92280121484447L1642.0003163239103 411.92280121484447L1642.0003163239103 427.317822181917Q1647.249233841682 418.9574329396931 1656.123692325337 414.4660911461359Q1664.9981508089922 409.9747493525787 1675.712436051454 409.9747493525787L1675.712436051454 409.9747493525787Q1689.132348880396 409.9747493525787 1699.4678462607503 416.0353551462944Q1709.8033436411051 422.06890466414535 1714.8628672278228 433.7572158377399L1714.8628672278228 433.7572158377399Q1719.3271527455154 422.4476925262526 1729.6626501258697 416.22474907734806Q1739.998147506224 409.9747493525787 1752.6604846109517 409.9747493525787L1752.6604846109517 409.9747493525787Z " fill="#004aad" transform="matrix(0.48722185470875473,0,0,0.4872218547087547,0,82.96920102285148)"/></g></svg>